<svg width="490" height="160" viewBox="0 0 490 160" fill="none" xmlns="http://www.w3.org/2000/svg">
<path d="M119.792 55.2299L115.652 82.5599C115.66 82.6062 115.66 82.6537 115.652 82.7C115.34 85.3776 114.164 87.8806 112.302 89.8299C110.486 91.5425 108.066 92.4666 105.572 92.3999C104.537 92.4696 103.499 92.3084 102.534 91.9279C101.569 91.5474 100.701 90.9572 99.9915 90.2C98.7315 88.7299 98.2815 86.5099 98.6515 83.5799L102.912 55.3199L87.4315 55.3999L82.6515 85.9899C81.6515 92.9099 82.5615 98.3499 85.4315 102.18C88.3015 106.01 92.3815 107.88 97.6015 107.88C100.327 107.938 103.028 107.363 105.494 106.2C107.96 105.038 110.122 103.319 111.812 101.18C111.881 101.093 111.978 101.031 112.086 101.004C112.195 100.977 112.309 100.986 112.412 101.03C112.517 101.074 112.604 101.152 112.658 101.252C112.713 101.352 112.732 101.468 112.712 101.58L111.992 106.39H127.692L135.282 55.1699L119.792 55.2299Z" fill="#004E86"/>
<path d="M231.821 80.8801C231.203 80.0855 230.448 79.4081 229.591 78.8801C227.758 77.7369 225.811 76.7884 223.781 76.0501C221.864 75.325 219.891 74.7597 217.881 74.3601C216.218 74.1006 214.617 73.5343 213.161 72.6901C212.559 72.4009 212.064 71.9291 211.746 71.3419C211.428 70.7547 211.304 70.0821 211.391 69.4201C211.651 67.8201 212.691 65.9601 216.291 66.1301C219.291 66.1901 221.581 67.7401 223.021 70.7301L236.191 64.0301C234.499 60.6599 231.801 57.8991 228.471 56.1301C224.738 54.1893 220.578 53.213 216.371 53.2901H216.231C211.389 53.2743 206.643 54.6412 202.551 57.2301C200.579 58.4768 198.919 60.1572 197.695 62.1432C196.471 64.1293 195.718 66.3685 195.491 68.6901C194.948 71.8017 195.418 75.0053 196.831 77.8301C198.036 80.1321 199.931 81.9993 202.251 83.1701C204.537 84.2862 206.916 85.1997 209.361 85.9001C211.495 86.4958 213.592 87.217 215.641 88.0601C217.581 88.9001 218.451 89.9901 218.241 91.3001C218.001 93.2501 216.241 94.3001 212.931 94.3001C211.026 94.3809 209.143 93.8656 207.544 92.8261C205.945 91.7865 204.71 90.2744 204.011 88.5001L190.291 95.5001C194.221 103.62 201.691 107.73 212.521 107.73H212.591C217.734 107.87 222.813 106.563 227.251 103.96C231.251 101.51 233.611 97.6001 234.321 92.3501C234.76 89.5107 234.485 86.6067 233.521 83.9001C233.1 82.8183 232.527 81.8015 231.821 80.8801Z" fill="#004E86"/>
<path d="M351.031 61C346.291 55 339.788 52.0366 331.521 52.11C323.254 52.1833 316.471 54.7333 311.171 59.76C305.996 64.6837 302.7 71.2578 301.851 78.35C301.198 83.0769 301.748 87.8924 303.451 92.35C305.215 96.8956 308.31 100.803 312.331 103.56C316.79 106.648 322.12 108.228 327.541 108.07C335.614 108.07 342.338 105.423 347.711 100.13C352.92 95.1639 356.183 88.4999 356.911 81.34C357.357 77.7282 357.066 74.0635 356.055 70.5674C355.045 67.0713 353.336 63.8166 351.031 61ZM339.451 79.91C339.22 82.9494 337.878 85.7973 335.681 87.91C333.592 89.9398 330.783 91.0582 327.871 91.02C326.546 91.0895 325.222 90.8482 324.007 90.3151C322.792 89.7821 321.718 88.9721 320.871 87.95C320.008 86.8362 319.384 85.5557 319.04 84.1893C318.696 82.8228 318.638 81.3998 318.871 80.01C319.121 76.9911 320.466 74.1676 322.651 72.07C324.7 70.0627 327.463 68.9512 330.331 68.98C331.664 68.8972 332.999 69.125 334.229 69.6456C335.459 70.1662 336.552 70.9653 337.421 71.98C338.288 73.0905 338.915 74.3682 339.265 75.7329C339.614 77.0975 339.677 78.5196 339.451 79.91Z" fill="#004E86"/>
<path d="M388.191 55.0001C385.164 56.9205 382.874 59.8062 381.691 63.1901L382.691 53.3001L365.481 53.3901L359.911 106.56H377.261L379.551 84.4101C379.551 84.4101 379.551 84.3101 379.551 84.2601C380.091 79.3101 382.091 75.8501 385.551 73.8801C388.938 71.8977 392.9 71.132 396.781 71.7101L398.591 52.2401C394.932 52.1506 391.324 53.1082 388.191 55.0001Z" fill="#004E86"/>
<path d="M428.311 69.92L439.241 69.8701L440.911 53.0001L429.911 53.05L431.351 38.3L413.491 43.6601L412.551 53.1501H404.711L403.051 69.9801H410.911L409.371 85.8401C408.604 94.1201 410.384 99.9567 414.711 103.35C419.037 106.743 426.127 107.743 435.981 106.35L437.421 90.2301C433.361 90.5301 430.537 90.3934 428.951 89.8201C427.361 89.2601 426.681 87.7601 426.951 85.3401L428.311 69.92Z" fill="#004E86"/>
<path d="M483.191 77.4999C481.199 76.3158 479.096 75.331 476.911 74.5599C474.867 73.8127 472.767 73.2308 470.631 72.8199C468.946 72.5624 467.321 72.0071 465.831 71.1799C465.289 70.9431 464.834 70.5455 464.526 70.041C464.219 69.5366 464.073 68.9496 464.111 68.3599C464.361 66.3099 465.821 65.3599 468.511 65.4699C471.611 65.5299 473.931 67.1599 475.511 70.3499L489.771 63.04C487.79 59.278 484.686 56.2266 480.891 54.3099C476.843 52.2754 472.36 51.2626 467.831 51.3599C462.771 51.3124 457.806 52.7369 453.541 55.4599C451.497 56.7525 449.795 58.5174 448.577 60.6058C447.358 62.6943 446.66 65.0451 446.541 67.4599C446.116 70.7942 446.782 74.1764 448.441 77.0999C449.862 79.5569 451.996 81.5238 454.561 82.7399C457.004 83.8977 459.544 84.8413 462.151 85.5599C464.372 86.1533 466.556 86.8779 468.691 87.73C470.491 88.48 471.331 89.3899 471.211 90.4699C471.071 92.1899 469.447 93.0533 466.341 93.0599C462.027 93.0599 458.924 91.0266 457.031 86.9599L442.221 94.6199C446.761 103.433 454.904 107.837 466.651 107.83C472.651 107.83 477.754 106.52 481.961 103.9C486.167 101.28 488.501 97.2166 488.961 91.7099C489.283 88.696 488.843 85.6493 487.681 82.8499C486.78 80.6411 485.21 78.7701 483.191 77.4999Z" fill="#004E86"/>
<path d="M135.351 55.1501L127.761 106.37H112.061L112.781 101.56C112.801 101.448 112.782 101.332 112.728 101.232C112.673 101.132 112.586 101.054 112.481 101.01C112.378 100.966 112.264 100.957 112.156 100.984C112.047 101.011 111.951 101.073 111.881 101.16C110.192 103.299 108.029 105.018 105.564 106.18C103.098 107.343 100.396 107.918 97.6711 107.86C92.4511 107.86 88.3611 105.94 85.5011 102.16C82.6411 98.3802 81.7011 92.8902 82.7211 85.9702L87.5011 55.3802L102.981 55.3001L98.6111 83.5602C98.2411 86.4902 98.6911 88.7101 99.9511 90.1801C100.66 90.9374 101.528 91.5276 102.494 91.9081C103.459 92.2886 104.496 92.4498 105.531 92.3802C108.026 92.4468 110.446 91.5228 112.261 89.8102C114.123 87.8608 115.299 85.3578 115.611 82.6801C115.62 82.6339 115.62 82.5864 115.611 82.5402L119.751 55.2002L135.351 55.1501Z" fill="#004E86"/>
<path d="M233.491 83.8801C234.455 86.5868 234.729 89.4907 234.291 92.3301C233.581 97.5801 231.211 101.49 227.221 103.94C222.783 106.543 217.704 107.85 212.561 107.71H212.491C201.661 107.71 194.191 103.6 190.261 95.4801L203.981 88.4801C204.68 90.2544 205.915 91.7665 207.514 92.8061C209.112 93.8457 210.995 94.3609 212.901 94.2801C216.181 94.2801 217.971 93.2801 218.211 91.2801C218.421 89.9701 217.551 88.8801 215.611 88.0401C213.562 87.1971 211.465 86.4758 209.331 85.8801C206.886 85.1797 204.506 84.2662 202.221 83.1501C199.901 81.9793 198.006 80.1121 196.801 77.8101C195.388 74.9853 194.918 71.7817 195.461 68.6701C195.687 66.3485 196.441 64.1093 197.665 62.1232C198.888 60.1372 200.549 58.4568 202.521 57.2101C206.613 54.6212 211.359 53.2543 216.201 53.2701H216.341C220.548 53.193 224.707 54.1693 228.441 56.1101C231.771 57.879 234.469 60.6399 236.161 64.0101L222.991 70.7101C221.551 67.7101 219.291 66.1701 216.261 66.1101C212.661 65.9401 211.621 67.8001 211.361 69.4001C211.274 70.0621 211.398 70.7347 211.716 71.3219C212.034 71.9091 212.529 72.3809 213.131 72.6701C214.587 73.5143 216.188 74.0806 217.851 74.3401C219.861 74.7398 221.834 75.305 223.751 76.0301C225.781 76.7685 227.728 77.7169 229.561 78.8601C230.418 79.3881 231.173 80.0655 231.791 80.8601C232.497 81.7815 233.069 82.7983 233.491 83.8801Z" fill="#004E86"/>
<path d="M158.211 11.66C129.711 11.66 103.491 18.19 82.7112 29.15C84.6114 31.6228 86.2188 34.3074 87.5012 37.15L67.1512 48.73C66.0739 46.3856 64.529 44.286 62.6112 42.56C59.3712 39.6867 55.1312 38.2533 49.8912 38.26C43.3047 38.1827 36.9515 40.6967 32.2012 45.26C27.2012 49.9267 24.0779 56.0367 22.8312 63.59C21.6712 70.97 22.7479 77.0333 26.0612 81.78C27.25 83.5264 28.7749 85.0183 30.5469 86.1687C32.3188 87.3191 34.3022 88.1048 36.3812 88.48C37.8863 88.7762 39.4173 88.9202 40.9512 88.91C49.3246 88.91 56.1146 85.18 61.3212 77.72L79.5712 90.37C75.1558 97.0883 69.1654 102.626 62.1212 106.5C55.1818 110.306 47.3858 112.278 39.4712 112.23C30.1912 112.23 22.3646 109.897 15.9912 105.23C13.1485 103.137 10.6225 100.644 8.49123 97.83C1.15789 88.23 -1.42544 76.37 0.741228 62.25C2.80123 48.4833 8.65456 37.15 18.3012 28.25C27.3733 19.5938 39.4626 14.8155 52.0012 14.93C55.8612 14.8985 59.7093 15.3623 63.4512 16.31C84.8112 6.06 111.251 0 139.891 0C184.891 0 224.411 14.94 247.381 37.56C225.111 21.63 193.401 11.66 158.211 11.66Z" fill="#004E86"/>
<path d="M119.792 55.2302L115.652 82.5602C115.66 82.6064 115.66 82.6539 115.652 82.7002C115.34 85.3778 114.164 87.8808 112.302 89.8301C110.486 91.5428 108.066 92.4668 105.572 92.4001C104.537 92.4698 103.499 92.3086 102.534 91.9281C101.569 91.5476 100.701 90.9574 99.9915 90.2002C98.7315 88.7302 98.2815 86.5101 98.6515 83.5801L102.912 55.3202L87.4315 55.4001L82.6515 85.9901C81.6515 92.9101 82.5615 98.3501 85.4315 102.18C88.3015 106.01 92.3815 107.88 97.6015 107.88C100.327 107.938 103.028 107.363 105.494 106.2C107.96 105.038 110.122 103.319 111.812 101.18C111.881 101.093 111.978 101.031 112.086 101.004C112.195 100.977 112.309 100.986 112.412 101.03C112.517 101.074 112.604 101.152 112.658 101.252C112.713 101.352 112.732 101.468 112.712 101.58L111.992 106.39H127.692L135.282 55.1701L119.792 55.2302ZM127.792 106.34H112.122L112.842 101.55C112.859 101.436 112.838 101.319 112.783 101.218C112.728 101.116 112.641 101.035 112.536 100.988C112.43 100.94 112.312 100.928 112.2 100.954C112.087 100.98 111.986 101.042 111.912 101.13C110.225 103.27 108.065 104.99 105.601 106.152C103.136 107.315 100.436 107.889 97.7115 107.83C92.5015 107.83 88.4115 105.92 85.5515 102.14C82.6915 98.3601 81.7615 92.8801 82.7815 85.9601L87.5515 55.3901L103.002 55.3001L98.6015 83.5602C98.2315 86.4902 98.6815 88.7202 99.9415 90.1902C100.651 90.9506 101.52 91.5434 102.487 91.9257C103.454 92.308 104.494 92.4701 105.532 92.4001C108.029 92.4673 110.452 91.5434 112.272 89.8301C114.137 87.8739 115.316 85.3646 115.632 82.6801C115.637 82.6337 115.637 82.5867 115.632 82.5402L119.772 55.2202L135.292 55.1401L127.792 106.34Z" fill="#004E86"/>
<path d="M119.792 55.2302L115.652 82.5602C115.66 82.6064 115.66 82.6539 115.652 82.7002C115.34 85.3778 114.164 87.8808 112.302 89.8301C110.486 91.5428 108.066 92.4668 105.572 92.4001C104.537 92.4698 103.499 92.3086 102.534 91.9281C101.569 91.5476 100.701 90.9574 99.9915 90.2002C98.7315 88.7302 98.2815 86.5101 98.6515 83.5801L102.912 55.3202L87.4315 55.4001L82.6515 85.9901C81.6515 92.9101 82.5615 98.3501 85.4315 102.18C88.3015 106.01 92.3815 107.88 97.6015 107.88C100.327 107.938 103.028 107.363 105.494 106.2C107.96 105.038 110.122 103.319 111.812 101.18C111.881 101.093 111.978 101.031 112.086 101.004C112.195 100.977 112.309 100.986 112.412 101.03C112.517 101.074 112.604 101.152 112.658 101.252C112.713 101.352 112.732 101.468 112.712 101.58L111.992 106.39H127.692L135.282 55.1701L119.792 55.2302ZM127.792 106.34H112.122L112.842 101.55C112.859 101.436 112.838 101.319 112.783 101.218C112.728 101.116 112.641 101.035 112.536 100.988C112.43 100.94 112.312 100.928 112.2 100.954C112.087 100.98 111.986 101.042 111.912 101.13C110.225 103.27 108.065 104.99 105.601 106.152C103.136 107.315 100.436 107.889 97.7115 107.83C92.5015 107.83 88.4115 105.92 85.5515 102.14C82.6915 98.3601 81.7615 92.8801 82.7815 85.9601L87.5515 55.3901L103.002 55.3001L98.6015 83.5602C98.2315 86.4902 98.6815 88.7202 99.9415 90.1902C100.651 90.9506 101.52 91.5434 102.487 91.9257C103.454 92.308 104.494 92.4701 105.532 92.4001C108.029 92.4673 110.452 91.5434 112.272 89.8301C114.137 87.8739 115.316 85.3646 115.632 82.6801C115.637 82.6337 115.637 82.5867 115.632 82.5402L119.772 55.2202L135.292 55.1401L127.792 106.34Z" fill="black"/>
<path d="M135.331 55.1699L127.751 106.34H112.081L112.801 101.55C112.819 101.436 112.798 101.319 112.743 101.217C112.688 101.116 112.601 101.035 112.495 100.988C112.39 100.94 112.272 100.928 112.159 100.954C112.047 100.98 111.946 101.041 111.871 101.13C110.185 103.27 108.025 104.99 105.56 106.152C103.096 107.315 100.395 107.889 97.6713 107.83C92.4613 107.83 88.3713 105.92 85.5113 102.14C82.6513 98.3599 81.7213 92.8799 82.7413 85.9599L87.5113 55.3899L102.961 55.2999L98.6013 83.5599C98.2313 86.4899 98.6813 88.7199 99.9413 90.1899C100.65 90.9504 101.52 91.5432 102.487 91.9255C103.454 92.3078 104.494 92.4698 105.531 92.3999C108.029 92.4671 110.452 91.5431 112.271 89.8299C114.137 87.8737 115.316 85.3644 115.631 82.6799C115.637 82.6334 115.637 82.5864 115.631 82.5399L119.771 55.2199L135.331 55.1699Z" fill="#004E86"/>
<path d="M186.911 60.8601C182.431 55.5868 176.388 52.9701 168.781 53.0101C161.552 52.9394 154.57 55.6413 149.271 60.5601C143.791 65.4828 140.301 72.2412 139.461 79.5601C138.361 87.6535 140.091 94.4635 144.651 99.9901C149.211 105.517 155.908 108.28 164.741 108.28C173.641 108.28 180.958 105.417 186.691 99.6901L175.571 89.4901C174.259 90.7634 172.703 91.7582 170.997 92.4147C169.29 93.0712 167.469 93.3758 165.641 93.3101C160.081 93.3101 156.775 91.1835 155.721 86.9301L190.551 86.8201C191.32 84.721 191.824 82.5341 192.051 80.3101C193.151 72.6368 191.438 66.1535 186.911 60.8601ZM157.411 74.8001C159.745 69.9735 163.385 67.5601 168.331 67.5601C173.331 67.5601 176.061 69.9301 176.541 74.7301L157.411 74.8001Z" fill="#004E86"/>
<path d="M231.821 80.8801C231.203 80.0855 230.448 79.4081 229.591 78.8801C227.758 77.7369 225.811 76.7884 223.781 76.0501C221.865 75.325 219.891 74.7597 217.881 74.3601C216.218 74.1006 214.618 73.5343 213.161 72.6901C212.559 72.4009 212.064 71.9291 211.746 71.3419C211.429 70.7547 211.304 70.0821 211.391 69.4201C211.651 67.8201 212.691 65.9601 216.291 66.1301C219.291 66.1901 221.581 67.7401 223.021 70.7301L236.191 64.0301C234.5 60.6599 231.802 57.8991 228.471 56.1301C224.738 54.1893 220.578 53.213 216.371 53.2901H216.231C211.389 53.2743 206.643 54.6412 202.551 57.2301C200.58 58.4768 198.919 60.1572 197.695 62.1432C196.472 64.1293 195.718 66.3685 195.491 68.6901C194.948 71.8017 195.418 75.0053 196.831 77.8301C198.036 80.1321 199.932 81.9993 202.251 83.1701C204.537 84.2862 206.916 85.1997 209.361 85.9001C211.495 86.4958 213.592 87.217 215.641 88.0601C217.581 88.9001 218.451 89.9901 218.241 91.3001C218.001 93.2501 216.241 94.3001 212.931 94.3001C211.026 94.3809 209.143 93.8656 207.544 92.8261C205.945 91.7865 204.71 90.2744 204.011 88.5001L190.291 95.5001C194.221 103.62 201.691 107.73 212.521 107.73H212.591C217.734 107.87 222.813 106.563 227.251 103.96C231.251 101.51 233.611 97.6001 234.321 92.3501C234.76 89.5107 234.485 86.6067 233.521 83.9001C233.1 82.8183 232.528 81.8015 231.821 80.8801ZM234.281 92.3201C233.571 97.5701 231.191 101.48 227.221 103.93C222.78 106.524 217.703 107.826 212.561 107.69C201.691 107.69 194.221 103.61 190.281 95.4901L203.971 88.4901C204.673 90.2642 205.91 91.7754 207.51 92.8132C209.111 93.851 210.995 94.3638 212.901 94.2801C216.191 94.2801 217.991 93.2801 218.231 91.2801C218.441 89.9601 217.561 88.8701 215.621 88.0301C213.574 87.1788 211.477 86.4541 209.341 85.8601C206.895 85.1614 204.516 84.2478 202.231 83.1301C199.916 81.9662 198.024 80.1056 196.821 77.8101C195.408 74.9853 194.938 71.7817 195.481 68.6701C195.7 66.3563 196.445 64.123 197.658 62.1405C198.871 60.158 200.521 58.4785 202.481 57.2301C206.565 54.6322 211.311 53.2644 216.151 53.2901H216.291C220.494 53.2189 224.649 54.1949 228.381 56.1301C231.701 57.8976 234.391 60.6506 236.081 64.0101L222.941 70.7001C221.501 67.7001 219.241 66.1601 216.211 66.1001C212.601 65.9401 211.551 67.8001 211.291 69.4101C211.203 70.0748 211.328 70.7504 211.647 71.3398C211.967 71.9292 212.466 72.4019 213.071 72.6901C214.526 73.5406 216.127 74.1104 217.791 74.3701C219.806 74.7636 221.783 75.329 223.701 76.0601C225.727 76.7974 227.67 77.7424 229.501 78.8801C231.302 80.087 232.669 81.8394 233.401 83.8801C234.389 86.5773 234.691 89.4773 234.281 92.3201Z" fill="#004E86"/>
<path d="M231.821 80.8801C231.203 80.0855 230.448 79.4081 229.591 78.8801C227.758 77.7369 225.811 76.7884 223.781 76.0501C221.865 75.325 219.891 74.7597 217.881 74.3601C216.218 74.1006 214.618 73.5343 213.161 72.6901C212.559 72.4009 212.064 71.9291 211.746 71.3419C211.429 70.7547 211.304 70.0821 211.391 69.4201C211.651 67.8201 212.691 65.9601 216.291 66.1301C219.291 66.1901 221.581 67.7401 223.021 70.7301L236.191 64.0301C234.5 60.6599 231.802 57.8991 228.471 56.1301C224.738 54.1893 220.578 53.213 216.371 53.2901H216.231C211.389 53.2743 206.643 54.6412 202.551 57.2301C200.58 58.4768 198.919 60.1572 197.695 62.1432C196.472 64.1293 195.718 66.3685 195.491 68.6901C194.948 71.8017 195.418 75.0053 196.831 77.8301C198.036 80.1321 199.932 81.9993 202.251 83.1701C204.537 84.2862 206.916 85.1997 209.361 85.9001C211.495 86.4958 213.592 87.217 215.641 88.0601C217.581 88.9001 218.451 89.9901 218.241 91.3001C218.001 93.2501 216.241 94.3001 212.931 94.3001C211.026 94.3809 209.143 93.8656 207.544 92.8261C205.945 91.7865 204.71 90.2744 204.011 88.5001L190.291 95.5001C194.221 103.62 201.691 107.73 212.521 107.73H212.591C217.734 107.87 222.813 106.563 227.251 103.96C231.251 101.51 233.611 97.6001 234.321 92.3501C234.76 89.5107 234.485 86.6067 233.521 83.9001C233.1 82.8183 232.528 81.8015 231.821 80.8801ZM234.281 92.3201C233.571 97.5701 231.191 101.48 227.221 103.93C222.78 106.524 217.703 107.826 212.561 107.69C201.691 107.69 194.221 103.61 190.281 95.4901L203.971 88.4901C204.673 90.2642 205.91 91.7754 207.51 92.8132C209.111 93.851 210.995 94.3638 212.901 94.2801C216.191 94.2801 217.991 93.2801 218.231 91.2801C218.441 89.9601 217.561 88.8701 215.621 88.0301C213.574 87.1788 211.477 86.4541 209.341 85.8601C206.895 85.1614 204.516 84.2478 202.231 83.1301C199.916 81.9662 198.024 80.1056 196.821 77.8101C195.408 74.9853 194.938 71.7817 195.481 68.6701C195.7 66.3563 196.445 64.123 197.658 62.1405C198.871 60.158 200.521 58.4785 202.481 57.2301C206.565 54.6322 211.311 53.2644 216.151 53.2901H216.291C220.494 53.2189 224.649 54.1949 228.381 56.1301C231.701 57.8976 234.391 60.6506 236.081 64.0101L222.941 70.7001C221.501 67.7001 219.241 66.1601 216.211 66.1001C212.601 65.9401 211.551 67.8001 211.291 69.4101C211.203 70.0748 211.328 70.7504 211.647 71.3398C211.967 71.9292 212.466 72.4019 213.071 72.6901C214.526 73.5406 216.127 74.1104 217.791 74.3701C219.806 74.7636 221.783 75.329 223.701 76.0601C225.727 76.7974 227.67 77.7424 229.501 78.8801C231.302 80.087 232.669 81.8394 233.401 83.8801C234.389 86.5773 234.691 89.4773 234.281 92.3201Z" fill="black"/>
<path d="M233.481 83.89C234.44 86.5908 234.715 89.4871 234.281 92.32C233.571 97.57 231.191 101.48 227.221 103.93C222.78 106.524 217.703 107.826 212.561 107.69C201.691 107.69 194.221 103.61 190.281 95.49L203.971 88.49C204.673 90.2641 205.91 91.7752 207.51 92.8131C209.111 93.8509 210.995 94.3637 212.901 94.28C216.191 94.28 217.991 93.28 218.231 91.28C218.441 89.96 217.561 88.87 215.621 88.03C213.574 87.1787 211.477 86.454 209.341 85.86C206.895 85.1612 204.516 84.2477 202.231 83.13C199.916 81.9661 198.024 80.1055 196.821 77.81C195.408 74.9852 194.938 71.7816 195.481 68.67C195.7 66.3561 196.445 64.1229 197.658 62.1404C198.871 60.1578 200.521 58.4784 202.481 57.23C206.565 54.6321 211.311 53.2643 216.151 53.29H216.291C220.494 53.2188 224.649 54.1948 228.381 56.13C231.701 57.8975 234.391 60.6505 236.081 64.01L222.941 70.7C221.501 67.7 219.241 66.16 216.211 66.1C212.601 65.94 211.551 67.8 211.291 69.41C211.203 70.0747 211.328 70.7503 211.647 71.3397C211.967 71.9291 212.466 72.4018 213.071 72.69C214.526 73.5405 216.127 74.1103 217.791 74.37C219.806 74.7635 221.783 75.3289 223.701 76.06C225.727 76.7973 227.67 77.7423 229.501 78.88C231.334 80.0767 232.73 81.8342 233.481 83.89Z" fill="#004E86"/>
<path d="M291.541 60.8601C289.69 58.1585 287.188 55.9678 284.265 54.4907C281.342 53.0136 278.094 52.298 274.821 52.4101C271.626 52.3741 268.465 53.0828 265.591 54.4801C264.258 55.1396 263.011 55.9626 261.881 56.9301C261.441 57.3301 261.001 57.7401 260.571 58.1701L260.841 56.0101L260.891 55.6701L260.951 55.1901L261.101 53.9701H259.681L244.191 54.0501L234.741 128.05H251.911L252.501 123.25L255.281 100.56C257.125 103.453 259.854 105.673 263.061 106.89C265.413 107.742 267.9 108.159 270.401 108.12C273.177 108.147 275.938 107.711 278.571 106.83C282.318 105.539 285.664 103.295 288.281 100.32C293.016 94.9595 295.898 88.2167 296.501 81.0901C297.308 73.2834 295.655 66.5401 291.541 60.8601ZM279.341 80.1101C279.271 80.7201 279.181 81.3101 279.061 81.8701C278.582 84.4118 277.316 86.7383 275.441 88.5201C273.352 90.4949 270.596 91.6121 267.721 91.6501H267.231C265.859 91.7385 264.485 91.5145 263.211 90.9949C261.938 90.4752 260.8 89.6735 259.881 88.6501C258.141 86.6001 257.421 83.9001 257.751 80.5301L257.921 79.7901C258.297 76.6932 259.765 73.8318 262.061 71.7201C263.351 70.5348 264.898 69.6653 266.581 69.1801C267.731 68.8454 268.924 68.6804 270.121 68.6901C271.856 68.6328 273.577 69.0182 275.121 69.8101C276.028 70.2993 276.83 70.9619 277.481 71.7601C279.155 73.8134 279.775 76.5967 279.341 80.1101Z" fill="#004E86"/>
<path d="M9.07074 137.08L179.811 134.01V149.46L9.05074 145.56C7.95792 145.507 6.92738 145.036 6.17271 144.243C5.41803 143.451 4.99707 142.399 4.99707 141.305C4.99707 140.211 5.41803 139.159 6.17271 138.367C6.92738 137.574 7.95792 137.103 9.05074 137.05L9.07074 137.08Z" fill="#004E86"/>
<g opacity="0.7">
<path d="M295.381 144.56C295.456 146.005 295.369 147.454 295.121 148.88C294.953 149.758 294.495 150.553 293.821 151.14C292.741 152 291.221 152 289.821 151.96C285.821 151.84 281.911 151.72 277.951 151.63C261.471 151.63 244.951 150.89 228.501 150.51L179.831 149.42C179.831 148.06 179.751 133.97 179.831 133.97C180.581 133.97 181.321 133.97 182.071 133.97L188.261 133.86L197.561 133.69L209.181 133.48C225.761 133.173 242.341 132.877 258.921 132.59C269.131 132.4 279.371 132.41 289.571 131.95C291.001 131.88 292.681 131.82 293.851 132.78C295.221 133.9 295.331 135.98 295.371 137.62C295.371 138 295.371 138.37 295.371 138.75C295.381 140.71 295.361 142.66 295.381 144.56Z" fill="#FFC107"/>
</g>
<path d="M337.531 149.18H330.584L341.169 118.518H349.523L360.093 149.18H353.146L345.466 125.525H345.226L337.531 149.18ZM337.097 137.128H353.506V142.188H337.097V137.128ZM375.619 126.184V130.975H361.426V126.184H375.619ZM364.674 149.18V124.522C364.674 122.855 364.999 121.473 365.648 120.375C366.306 119.277 367.205 118.453 368.343 117.905C369.48 117.356 370.773 117.081 372.22 117.081C373.198 117.081 374.092 117.156 374.9 117.306C375.719 117.455 376.327 117.59 376.727 117.71L375.589 122.501C375.339 122.421 375.03 122.346 374.661 122.276C374.301 122.206 373.932 122.171 373.553 122.171C372.614 122.171 371.961 122.391 371.591 122.83C371.222 123.259 371.037 123.863 371.037 124.642V149.18H364.674ZM379.515 149.18V126.184H385.698V130.196H385.938C386.357 128.769 387.061 127.691 388.049 126.962C389.037 126.224 390.175 125.854 391.462 125.854C391.782 125.854 392.126 125.874 392.495 125.914C392.865 125.954 393.189 126.009 393.469 126.079V131.738C393.169 131.648 392.755 131.569 392.226 131.499C391.697 131.429 391.213 131.394 390.774 131.394C389.835 131.394 388.997 131.599 388.258 132.008C387.53 132.407 386.951 132.966 386.522 133.685C386.103 134.403 385.893 135.232 385.893 136.17V149.18H379.515ZM396.766 149.18V126.184H403.144V149.18H396.766ZM399.97 123.219C399.022 123.219 398.208 122.905 397.53 122.276C396.861 121.637 396.527 120.874 396.527 119.986C396.527 119.107 396.861 118.354 397.53 117.725C398.208 117.086 399.022 116.767 399.97 116.767C400.918 116.767 401.727 117.086 402.395 117.725C403.074 118.354 403.413 119.107 403.413 119.986C403.413 120.874 403.074 121.637 402.395 122.276C401.727 122.905 400.918 123.219 399.97 123.219ZM418.643 149.629C416.288 149.629 414.262 149.13 412.565 148.132C410.878 147.124 409.58 145.727 408.672 143.94C407.774 142.154 407.325 140.097 407.325 137.772C407.325 135.416 407.779 133.35 408.687 131.574C409.605 129.787 410.908 128.395 412.595 127.397C414.282 126.388 416.288 125.884 418.613 125.884C420.62 125.884 422.376 126.249 423.883 126.977C425.39 127.706 426.583 128.729 427.462 130.046C428.34 131.364 428.824 132.911 428.914 134.688H422.895C422.726 133.54 422.276 132.617 421.548 131.918C420.829 131.209 419.886 130.855 418.718 130.855C417.73 130.855 416.867 131.124 416.128 131.663C415.399 132.192 414.831 132.966 414.421 133.984C414.012 135.002 413.807 136.235 413.807 137.682C413.807 139.149 414.007 140.397 414.406 141.425C414.816 142.453 415.389 143.236 416.128 143.775C416.867 144.314 417.73 144.584 418.718 144.584C419.447 144.584 420.101 144.434 420.679 144.135C421.268 143.835 421.752 143.401 422.132 142.832C422.521 142.253 422.775 141.56 422.895 140.751H428.914C428.814 142.508 428.335 144.055 427.477 145.392C426.628 146.72 425.455 147.758 423.958 148.506C422.461 149.255 420.689 149.629 418.643 149.629ZM439.555 149.614C438.088 149.614 436.78 149.36 435.632 148.851C434.484 148.332 433.576 147.568 432.907 146.56C432.249 145.542 431.919 144.274 431.919 142.757C431.919 141.48 432.154 140.407 432.623 139.538C433.092 138.67 433.731 137.971 434.539 137.442C435.348 136.913 436.266 136.514 437.294 136.245C438.332 135.975 439.42 135.786 440.558 135.676C441.895 135.536 442.973 135.406 443.792 135.287C444.61 135.157 445.204 134.967 445.573 134.718C445.943 134.468 446.127 134.099 446.127 133.61V133.52C446.127 132.572 445.828 131.838 445.229 131.319C444.64 130.8 443.802 130.541 442.714 130.541C441.566 130.541 440.653 130.795 439.974 131.304C439.295 131.803 438.846 132.432 438.627 133.191L432.728 132.711C433.027 131.314 433.616 130.106 434.494 129.088C435.373 128.06 436.506 127.272 437.893 126.723C439.29 126.164 440.907 125.884 442.744 125.884C444.021 125.884 445.244 126.034 446.412 126.334C447.59 126.633 448.633 127.097 449.541 127.726C450.459 128.355 451.183 129.163 451.712 130.151C452.241 131.129 452.505 132.302 452.505 133.67V149.18H446.457V145.991H446.277C445.908 146.71 445.414 147.344 444.795 147.893C444.176 148.432 443.433 148.856 442.564 149.165C441.696 149.465 440.693 149.614 439.555 149.614ZM441.381 145.213C442.32 145.213 443.148 145.028 443.867 144.659C444.585 144.279 445.149 143.77 445.558 143.132C445.968 142.493 446.172 141.769 446.172 140.961V138.52C445.973 138.65 445.698 138.77 445.349 138.88C445.01 138.98 444.625 139.074 444.196 139.164C443.767 139.244 443.338 139.319 442.909 139.389C442.479 139.449 442.09 139.504 441.741 139.553C440.992 139.663 440.338 139.838 439.779 140.077C439.221 140.317 438.786 140.641 438.477 141.051C438.168 141.45 438.013 141.949 438.013 142.548C438.013 143.416 438.327 144.08 438.956 144.539C439.595 144.988 440.403 145.213 441.381 145.213Z" fill="#004E86"/>
</svg>
